<svg width="149" height="26" viewBox="0 0 149 26" fill="none" xmlns="http://www.w3.org/2000/svg">
<rect width="149" height="24" rx="4" fill="#DCA0CF"/>
<g filter="url(#filter0_d_1_9)">
<mask id="path-2-outside-1_1_9" maskUnits="userSpaceOnUse" x="28" y="6" width="88" height="13" fill="black">
<rect fill="white" x="28" y="6" width="88" height="13"/>
<path d="M39.4464 8.3C39.3904 9.652 39.3624 11.1 39.3624 12.644C39.3624 14.196 39.3904 15.648 39.4464 17H35.1504L32.2464 10.448L32.4624 17H29.3784C29.4424 15.448 29.4744 13.996 29.4744 12.644C29.4744 11.3 29.4424 9.852 29.3784 8.3H33.7944L36.7104 15.032L36.5064 8.3H39.4464ZM49.7658 10.532H43.2378V11.792C43.6458 11.8 44.2578 11.804 45.0738 11.804C46.4818 11.804 47.9138 11.78 49.3698 11.732V14.084C47.9138 14.028 46.3778 14 44.7618 14C44.0898 14 43.5818 14.004 43.2378 14.012V17H40.4058C40.4698 15.448 40.5018 13.996 40.5018 12.644C40.5018 11.292 40.4698 9.84 40.4058 8.288H49.7658V10.532ZM60.4403 10.808C59.1843 10.768 57.9643 10.744 56.7803 10.736V17H53.7803V10.736C52.5883 10.744 51.3723 10.768 50.1323 10.808V8.288H60.4403V10.808ZM75.0281 8.288L75.9641 17H72.8561L72.6641 10.784L71.4641 17H68.3201L67.0961 10.832L66.9161 17H63.8081L64.7441 8.288H68.8241L69.8681 13.964L70.7801 8.288H75.0281ZM84.6134 15.008C84.6134 15.28 84.6454 15.472 84.7094 15.584C84.7734 15.696 84.9014 15.776 85.0934 15.824L85.0454 16.952C84.7894 16.992 84.5654 17.02 84.3734 17.036C84.1894 17.052 83.9414 17.06 83.6294 17.06C82.9414 17.06 82.4854 16.908 82.2614 16.604C82.0374 16.292 81.9254 15.896 81.9254 15.416V15.116C81.6934 15.772 81.3534 16.26 80.9054 16.58C80.4654 16.9 79.9014 17.06 79.2134 17.06C78.4134 17.06 77.8094 16.9 77.4014 16.58C77.0014 16.26 76.8014 15.784 76.8014 15.152C76.8014 14.632 76.9734 14.224 77.3174 13.928C77.6614 13.632 78.1934 13.428 78.9134 13.316C78.3054 12.884 77.6974 12.508 77.0894 12.188C77.5694 11.58 78.1174 11.12 78.7334 10.808C79.3494 10.488 80.0974 10.328 80.9774 10.328C82.2094 10.328 83.1214 10.596 83.7134 11.132C84.3134 11.66 84.6134 12.476 84.6134 13.58V15.008ZM81.2294 12.44C80.8214 12.44 80.4614 12.508 80.1494 12.644C79.8374 12.78 79.5574 12.984 79.3094 13.256C79.7894 13.2 80.3894 13.172 81.1094 13.172C81.4054 13.172 81.6134 13.136 81.7334 13.064C81.8534 12.992 81.9134 12.9 81.9134 12.788C81.9134 12.692 81.8534 12.612 81.7334 12.548C81.6134 12.476 81.4454 12.44 81.2294 12.44ZM79.9694 15.104C80.4174 15.104 80.8214 15.02 81.1814 14.852C81.5414 14.676 81.7894 14.448 81.9254 14.168V13.856C81.7334 13.952 81.5214 14.028 81.2894 14.084C81.0574 14.132 80.7774 14.18 80.4494 14.228L80.0174 14.3C79.5694 14.388 79.3454 14.54 79.3454 14.756C79.3454 14.988 79.5534 15.104 79.9694 15.104ZM88.5999 12.224C88.9359 11.016 89.7719 10.412 91.1079 10.412C91.3399 10.412 91.5639 10.428 91.7799 10.46L91.3959 13.148C90.8199 12.932 90.3479 12.824 89.9799 12.824C89.5239 12.824 89.1879 12.96 88.9719 13.232C88.7559 13.504 88.6479 13.868 88.6479 14.324V14.312L88.6359 15.104C88.6359 15.672 88.6519 16.304 88.6839 17H85.8159C85.8799 15.848 85.9119 14.76 85.9119 13.736C85.9119 12.712 85.8799 11.616 85.8159 10.448C86.3439 10.472 86.7479 10.484 87.0279 10.484C87.3239 10.484 87.7279 10.472 88.2399 10.448L88.5999 12.224ZM101.214 10.436L98.2377 13.148C99.2537 14.588 100.202 15.872 101.082 17H97.9017L97.2897 16.016C96.8897 15.352 96.6257 14.92 96.4977 14.72L95.5017 15.632V17H92.7417C92.8057 15.48 92.8377 13.94 92.8377 12.38C92.8377 10.812 92.8057 9.24 92.7417 7.664H95.5017V12.752C96.2777 11.96 97.0097 11.188 97.6977 10.436H101.214ZM107.082 14H103.17C103.234 14.352 103.39 14.64 103.638 14.864C103.894 15.08 104.254 15.188 104.718 15.188C105.054 15.188 105.37 15.124 105.666 14.996C105.962 14.86 106.198 14.672 106.374 14.432C106.91 14.696 107.622 14.98 108.51 15.284C108.262 15.844 107.81 16.292 107.154 16.628C106.506 16.956 105.658 17.12 104.61 17.12C103.25 17.12 102.242 16.808 101.586 16.184C100.938 15.552 100.614 14.724 100.614 13.7C100.614 12.7 100.938 11.888 101.586 11.264C102.234 10.64 103.242 10.328 104.61 10.328C105.426 10.328 106.134 10.464 106.734 10.736C107.334 11.008 107.794 11.388 108.114 11.876C108.434 12.356 108.594 12.908 108.594 13.532C108.594 13.74 108.586 13.896 108.57 14H107.082ZM104.778 12.14C104.378 12.14 104.05 12.216 103.794 12.368C103.538 12.52 103.358 12.728 103.254 12.992H106.086C105.99 12.736 105.834 12.532 105.618 12.38C105.402 12.22 105.122 12.14 104.778 12.14ZM114.865 12.596C114.129 12.548 113.457 12.512 112.849 12.488L112.837 13.76C112.837 14.192 112.929 14.532 113.113 14.78C113.305 15.02 113.641 15.14 114.121 15.14C114.305 15.14 114.481 15.124 114.649 15.092C114.617 15.388 114.601 15.688 114.601 15.992C114.601 16.136 114.609 16.464 114.625 16.976C114.273 17.04 113.977 17.08 113.737 17.096C113.497 17.112 113.185 17.12 112.801 17.12C111.865 17.12 111.201 16.896 110.809 16.448C110.425 15.992 110.233 15.36 110.233 14.552L110.245 12.524C109.869 12.54 109.477 12.564 109.069 12.596V10.472C109.485 10.472 109.837 10.34 110.125 10.076C110.413 9.812 110.585 9.496 110.641 9.128H113.905C113.497 9.688 113.045 10.136 112.549 10.472H114.865V12.596Z"/>
</mask>
<path d="M39.4464 8.3C39.3904 9.652 39.3624 11.1 39.3624 12.644C39.3624 14.196 39.3904 15.648 39.4464 17H35.1504L32.2464 10.448L32.4624 17H29.3784C29.4424 15.448 29.4744 13.996 29.4744 12.644C29.4744 11.3 29.4424 9.852 29.3784 8.3H33.7944L36.7104 15.032L36.5064 8.3H39.4464ZM49.7658 10.532H43.2378V11.792C43.6458 11.8 44.2578 11.804 45.0738 11.804C46.4818 11.804 47.9138 11.78 49.3698 11.732V14.084C47.9138 14.028 46.3778 14 44.7618 14C44.0898 14 43.5818 14.004 43.2378 14.012V17H40.4058C40.4698 15.448 40.5018 13.996 40.5018 12.644C40.5018 11.292 40.4698 9.84 40.4058 8.288H49.7658V10.532ZM60.4403 10.808C59.1843 10.768 57.9643 10.744 56.7803 10.736V17H53.7803V10.736C52.5883 10.744 51.3723 10.768 50.1323 10.808V8.288H60.4403V10.808ZM75.0281 8.288L75.9641 17H72.8561L72.6641 10.784L71.4641 17H68.3201L67.0961 10.832L66.9161 17H63.8081L64.7441 8.288H68.8241L69.8681 13.964L70.7801 8.288H75.0281ZM84.6134 15.008C84.6134 15.28 84.6454 15.472 84.7094 15.584C84.7734 15.696 84.9014 15.776 85.0934 15.824L85.0454 16.952C84.7894 16.992 84.5654 17.02 84.3734 17.036C84.1894 17.052 83.9414 17.06 83.6294 17.06C82.9414 17.06 82.4854 16.908 82.2614 16.604C82.0374 16.292 81.9254 15.896 81.9254 15.416V15.116C81.6934 15.772 81.3534 16.26 80.9054 16.58C80.4654 16.9 79.9014 17.06 79.2134 17.06C78.4134 17.06 77.8094 16.9 77.4014 16.58C77.0014 16.26 76.8014 15.784 76.8014 15.152C76.8014 14.632 76.9734 14.224 77.3174 13.928C77.6614 13.632 78.1934 13.428 78.9134 13.316C78.3054 12.884 77.6974 12.508 77.0894 12.188C77.5694 11.58 78.1174 11.12 78.7334 10.808C79.3494 10.488 80.0974 10.328 80.9774 10.328C82.2094 10.328 83.1214 10.596 83.7134 11.132C84.3134 11.66 84.6134 12.476 84.6134 13.58V15.008ZM81.2294 12.44C80.8214 12.44 80.4614 12.508 80.1494 12.644C79.8374 12.78 79.5574 12.984 79.3094 13.256C79.7894 13.2 80.3894 13.172 81.1094 13.172C81.4054 13.172 81.6134 13.136 81.7334 13.064C81.8534 12.992 81.9134 12.9 81.9134 12.788C81.9134 12.692 81.8534 12.612 81.7334 12.548C81.6134 12.476 81.4454 12.44 81.2294 12.44ZM79.9694 15.104C80.4174 15.104 80.8214 15.02 81.1814 14.852C81.5414 14.676 81.7894 14.448 81.9254 14.168V13.856C81.7334 13.952 81.5214 14.028 81.2894 14.084C81.0574 14.132 80.7774 14.18 80.4494 14.228L80.0174 14.3C79.5694 14.388 79.3454 14.54 79.3454 14.756C79.3454 14.988 79.5534 15.104 79.9694 15.104ZM88.5999 12.224C88.9359 11.016 89.7719 10.412 91.1079 10.412C91.3399 10.412 91.5639 10.428 91.7799 10.46L91.3959 13.148C90.8199 12.932 90.3479 12.824 89.9799 12.824C89.5239 12.824 89.1879 12.96 88.9719 13.232C88.7559 13.504 88.6479 13.868 88.6479 14.324V14.312L88.6359 15.104C88.6359 15.672 88.6519 16.304 88.6839 17H85.8159C85.8799 15.848 85.9119 14.76 85.9119 13.736C85.9119 12.712 85.8799 11.616 85.8159 10.448C86.3439 10.472 86.7479 10.484 87.0279 10.484C87.3239 10.484 87.7279 10.472 88.2399 10.448L88.5999 12.224ZM101.214 10.436L98.2377 13.148C99.2537 14.588 100.202 15.872 101.082 17H97.9017L97.2897 16.016C96.8897 15.352 96.6257 14.92 96.4977 14.72L95.5017 15.632V17H92.7417C92.8057 15.48 92.8377 13.94 92.8377 12.38C92.8377 10.812 92.8057 9.24 92.7417 7.664H95.5017V12.752C96.2777 11.96 97.0097 11.188 97.6977 10.436H101.214ZM107.082 14H103.17C103.234 14.352 103.39 14.64 103.638 14.864C103.894 15.08 104.254 15.188 104.718 15.188C105.054 15.188 105.37 15.124 105.666 14.996C105.962 14.86 106.198 14.672 106.374 14.432C106.91 14.696 107.622 14.98 108.51 15.284C108.262 15.844 107.81 16.292 107.154 16.628C106.506 16.956 105.658 17.12 104.61 17.12C103.25 17.12 102.242 16.808 101.586 16.184C100.938 15.552 100.614 14.724 100.614 13.7C100.614 12.7 100.938 11.888 101.586 11.264C102.234 10.64 103.242 10.328 104.61 10.328C105.426 10.328 106.134 10.464 106.734 10.736C107.334 11.008 107.794 11.388 108.114 11.876C108.434 12.356 108.594 12.908 108.594 13.532C108.594 13.74 108.586 13.896 108.57 14H107.082ZM104.778 12.14C104.378 12.14 104.05 12.216 103.794 12.368C103.538 12.52 103.358 12.728 103.254 12.992H106.086C105.99 12.736 105.834 12.532 105.618 12.38C105.402 12.22 105.122 12.14 104.778 12.14ZM114.865 12.596C114.129 12.548 113.457 12.512 112.849 12.488L112.837 13.76C112.837 14.192 112.929 14.532 113.113 14.78C113.305 15.02 113.641 15.14 114.121 15.14C114.305 15.14 114.481 15.124 114.649 15.092C114.617 15.388 114.601 15.688 114.601 15.992C114.601 16.136 114.609 16.464 114.625 16.976C114.273 17.04 113.977 17.08 113.737 17.096C113.497 17.112 113.185 17.12 112.801 17.12C111.865 17.12 111.201 16.896 110.809 16.448C110.425 15.992 110.233 15.36 110.233 14.552L110.245 12.524C109.869 12.54 109.477 12.564 109.069 12.596V10.472C109.485 10.472 109.837 10.34 110.125 10.076C110.413 9.812 110.585 9.496 110.641 9.128H113.905C113.497 9.688 113.045 10.136 112.549 10.472H114.865V12.596Z" fill="#C14BAE"/>
<path d="M39.4464 8.3L40.4456 8.34138L40.4887 7.3H39.4464V8.3ZM39.4464 17V18H40.4887L40.4456 16.9586L39.4464 17ZM35.1504 17L34.2362 17.4052L34.4998 18H35.1504V17ZM32.2464 10.448L33.1607 10.0428L31.247 10.4809L32.2464 10.448ZM32.4624 17V18H33.4959L33.4619 16.9671L32.4624 17ZM29.3784 17L28.3793 16.9588L28.3364 18H29.3784V17ZM29.3784 8.3V7.3H28.3364L28.3793 8.3412L29.3784 8.3ZM33.7944 8.3L34.7121 7.90253L34.4511 7.3H33.7944V8.3ZM36.7104 15.032L35.7928 15.4295L37.71 15.0017L36.7104 15.032ZM36.5064 8.3V7.3H35.4757L35.5069 8.33029L36.5064 8.3ZM38.4473 8.25861C38.3907 9.62616 38.3624 11.0881 38.3624 12.644H40.3624C40.3624 11.1119 40.3902 9.67784 40.4456 8.34138L38.4473 8.25861ZM38.3624 12.644C38.3624 14.2078 38.3906 15.6738 38.4473 17.0414L40.4456 16.9586C40.3902 15.6222 40.3624 14.1842 40.3624 12.644H38.3624ZM39.4464 16H35.1504V18H39.4464V16ZM36.0647 16.5948L33.1607 10.0428L31.3322 10.8532L34.2362 17.4052L36.0647 16.5948ZM31.247 10.4809L31.463 17.0329L33.4619 16.9671L33.2459 10.4151L31.247 10.4809ZM32.4624 16H29.3784V18H32.4624V16ZM30.3776 17.0412C30.4421 15.4774 30.4744 14.0116 30.4744 12.644H28.4744C28.4744 13.9804 28.4428 15.4186 28.3793 16.9588L30.3776 17.0412ZM30.4744 12.644C30.4744 11.2843 30.4421 9.82247 30.3776 8.2588L28.3793 8.3412C28.4428 9.88153 28.4744 11.3157 28.4744 12.644H30.4744ZM29.3784 9.3H33.7944V7.3H29.3784V9.3ZM32.8768 8.69747L35.7928 15.4295L37.6281 14.6345L34.7121 7.90253L32.8768 8.69747ZM37.71 15.0017L37.506 8.26971L35.5069 8.33029L35.7109 15.0623L37.71 15.0017ZM36.5064 9.3H39.4464V7.3H36.5064V9.3ZM49.7658 10.532V11.532H50.7658V10.532H49.7658ZM43.2378 10.532V9.532H42.2378V10.532H43.2378ZM43.2378 11.792H42.2378V12.7726L43.2182 12.7918L43.2378 11.792ZM49.3698 11.732H50.3698V10.6985L49.3368 10.7325L49.3698 11.732ZM49.3698 14.084L49.3313 15.0833L50.3698 15.1232V14.084H49.3698ZM43.2378 14.012L43.2145 13.0123L42.2378 13.035V14.012H43.2378ZM43.2378 17V18H44.2378V17H43.2378ZM40.4058 17L39.4066 16.9588L39.3637 18H40.4058V17ZM40.4058 8.288V7.288H39.3637L39.4066 8.3292L40.4058 8.288ZM49.7658 8.288H50.7658V7.288H49.7658V8.288ZM49.7658 9.532H43.2378V11.532H49.7658V9.532ZM42.2378 10.532V11.792H44.2378V10.532H42.2378ZM43.2182 12.7918C43.6363 12.8 44.2563 12.804 45.0738 12.804V10.804C44.2592 10.804 43.6552 10.8 43.2574 10.7922L43.2182 12.7918ZM45.0738 12.804C46.4931 12.804 47.9361 12.7798 49.4027 12.7315L49.3368 10.7325C47.8914 10.7802 46.4704 10.804 45.0738 10.804V12.804ZM48.3698 11.732V14.084H50.3698V11.732H48.3698ZM49.4082 13.0847C47.9381 13.0282 46.3892 13 44.7618 13V15C46.3663 15 47.8894 15.0278 49.3313 15.0833L49.4082 13.0847ZM44.7618 13C44.0878 13 43.5705 13.004 43.2145 13.0123L43.261 15.0117C43.5931 15.004 44.0917 15 44.7618 15V13ZM42.2378 14.012V17H44.2378V14.012H42.2378ZM43.2378 16H40.4058V18H43.2378V16ZM41.4049 17.0412C41.4694 15.4774 41.5018 14.0116 41.5018 12.644H39.5018C39.5018 13.9804 39.4701 15.4186 39.4066 16.9588L41.4049 17.0412ZM41.5018 12.644C41.5018 11.2764 41.4694 9.81056 41.4049 8.2468L39.4066 8.3292C39.4701 9.86944 39.5018 11.3076 39.5018 12.644H41.5018ZM40.4058 9.288H49.7658V7.288H40.4058V9.288ZM48.7658 8.288V10.532H50.7658V8.288H48.7658ZM60.4403 10.808L60.4085 11.8075L61.4403 11.8404V10.808H60.4403ZM56.7803 10.736L56.7871 9.73602L55.7803 9.72922V10.736H56.7803ZM56.7803 17V18H57.7803V17H56.7803ZM53.7803 17H52.7803V18H53.7803V17ZM53.7803 10.736H54.7803V9.72927L53.7736 9.73602L53.7803 10.736ZM50.1323 10.808H49.1323V11.8408L50.1646 11.8075L50.1323 10.808ZM50.1323 8.288V7.288H49.1323V8.288H50.1323ZM60.4403 8.288H61.4403V7.288H60.4403V8.288ZM60.4722 9.80851C59.2083 9.76826 57.98 9.74408 56.7871 9.73602L56.7736 11.736C57.9487 11.7439 59.1604 11.7677 60.4085 11.8075L60.4722 9.80851ZM55.7803 10.736V17H57.7803V10.736H55.7803ZM56.7803 16H53.7803V18H56.7803V16ZM54.7803 17V10.736H52.7803V17H54.7803ZM53.7736 9.73602C52.5728 9.74408 51.3483 9.76826 50.1001 9.80852L50.1646 11.8075C51.3964 11.7677 52.6039 11.7439 53.7871 11.736L53.7736 9.73602ZM51.1323 10.808V8.288H49.1323V10.808H51.1323ZM50.1323 9.288H60.4403V7.288H50.1323V9.288ZM59.4403 8.288V10.808H61.4403V8.288H59.4403ZM75.0281 8.288L76.0224 8.18118L75.9264 7.288H75.0281V8.288ZM75.9641 17V18H77.0773L76.9584 16.8932L75.9641 17ZM72.8561 17L71.8566 17.0309L71.8865 18H72.8561V17ZM72.6641 10.784L73.6636 10.7531L71.6823 10.5944L72.6641 10.784ZM71.4641 17V18H72.2895L72.446 17.1896L71.4641 17ZM68.3201 17L67.3393 17.1946L67.4991 18H68.3201V17ZM67.0961 10.832L68.077 10.6374L66.0966 10.8028L67.0961 10.832ZM66.9161 17V18H67.8874L67.9157 17.0292L66.9161 17ZM63.8081 17L62.8138 16.8932L62.6949 18H63.8081V17ZM64.7441 8.288V7.288H63.8458L63.7498 8.18118L64.7441 8.288ZM68.8241 8.288L69.8076 8.1071L69.657 7.288H68.8241V8.288ZM69.8681 13.964L68.8846 14.1449L70.8555 14.1226L69.8681 13.964ZM70.7801 8.288V7.288H69.928L69.7928 8.12936L70.7801 8.288ZM74.0338 8.39482L74.9698 17.1068L76.9584 16.8932L76.0224 8.18118L74.0338 8.39482ZM75.9641 16H72.8561V18H75.9641V16ZM73.8556 16.9691L73.6636 10.7531L71.6646 10.8149L71.8566 17.0309L73.8556 16.9691ZM71.6823 10.5944L70.4823 16.8104L72.446 17.1896L73.646 10.9736L71.6823 10.5944ZM71.4641 16H68.3201V18H71.4641V16ZM69.301 16.8054L68.077 10.6374L66.1153 11.0266L67.3393 17.1946L69.301 16.8054ZM66.0966 10.8028L65.9166 16.9708L67.9157 17.0292L68.0957 10.8612L66.0966 10.8028ZM66.9161 16H63.8081V18H66.9161V16ZM64.8024 17.1068L65.7384 8.39482L63.7498 8.18118L62.8138 16.8932L64.8024 17.1068ZM64.7441 9.288H68.8241V7.288H64.7441V9.288ZM67.8406 8.4689L68.8846 14.1449L70.8516 13.7831L69.8076 8.1071L67.8406 8.4689ZM70.8555 14.1226L71.7675 8.44664L69.7928 8.12936L68.8808 13.8054L70.8555 14.1226ZM70.7801 9.288H75.0281V7.288H70.7801V9.288ZM84.7094 15.584L83.8412 16.0801L83.8412 16.0801L84.7094 15.584ZM85.0934 15.824L86.0925 15.8665L86.1272 15.0517L85.3359 14.8539L85.0934 15.824ZM85.0454 16.952L85.1998 17.94L86.0097 17.8135L86.0445 16.9945L85.0454 16.952ZM84.3734 17.036L84.2904 16.0394L84.2868 16.0398L84.3734 17.036ZM82.2614 16.604L81.449 17.1873L81.4564 17.1972L82.2614 16.604ZM81.9254 15.116H82.9254L80.9826 14.7826L81.9254 15.116ZM80.9054 16.58L80.3241 15.7662L80.3172 15.7713L80.9054 16.58ZM77.4014 16.58L76.7767 17.3609L76.7843 17.3669L77.4014 16.58ZM77.3174 13.928L77.9696 14.686L77.9696 14.686L77.3174 13.928ZM78.9134 13.316L79.0671 14.3041L81.4983 13.9259L79.4926 12.5008L78.9134 13.316ZM77.0894 12.188L76.3045 11.5684L75.5591 12.5126L76.6237 13.0729L77.0894 12.188ZM78.7334 10.808L79.1853 11.7001L79.1944 11.6954L78.7334 10.808ZM83.7134 11.132L83.0422 11.8734L83.0528 11.8827L83.7134 11.132ZM80.1494 12.644L80.549 13.5607L80.549 13.5607L80.1494 12.644ZM79.3094 13.256L78.5705 12.5822L76.7678 14.5593L79.4253 14.2493L79.3094 13.256ZM81.7334 13.064L81.2189 12.2065L81.2189 12.2065L81.7334 13.064ZM81.7334 12.548L81.2189 13.4055L81.2406 13.4185L81.2628 13.4304L81.7334 12.548ZM81.1814 14.852L81.6043 15.7582L81.6125 15.7544L81.6206 15.7504L81.1814 14.852ZM81.9254 14.168L82.8249 14.6049L82.9254 14.398V14.168H81.9254ZM81.9254 13.856H82.9254V12.238L81.4782 12.9616L81.9254 13.856ZM81.2894 14.084L81.492 15.0633L81.5081 15.0599L81.524 15.0561L81.2894 14.084ZM80.4494 14.228L80.3046 13.2385L80.2948 13.24L80.285 13.2416L80.4494 14.228ZM80.0174 14.3L79.853 13.3136L79.8388 13.316L79.8247 13.3188L80.0174 14.3ZM83.6134 15.008C83.6134 15.3008 83.6378 15.7242 83.8412 16.0801L85.5777 15.0879C85.6041 15.1341 85.6164 15.1692 85.621 15.1839C85.6258 15.1991 85.6257 15.203 85.6238 15.1916C85.622 15.1806 85.6192 15.1601 85.617 15.1282C85.6149 15.0965 85.6134 15.0568 85.6134 15.008H83.6134ZM83.8412 16.0801C84.0981 16.5297 84.5337 16.7148 84.8509 16.7941L85.3359 14.8539C85.3118 14.8478 85.3359 14.8503 85.3834 14.88C85.4356 14.9126 85.5148 14.9778 85.5776 15.0879L83.8412 16.0801ZM84.0943 15.7815L84.0463 16.9095L86.0445 16.9945L86.0925 15.8665L84.0943 15.7815ZM84.891 15.964C84.6512 16.0015 84.452 16.026 84.2904 16.0395L84.4565 18.0325C84.6788 18.014 84.9276 17.9825 85.1998 17.94L84.891 15.964ZM84.2868 16.0398C84.1445 16.0521 83.9292 16.06 83.6294 16.06V18.06C83.9536 18.06 84.2343 18.0519 84.46 18.0322L84.2868 16.0398ZM83.6294 16.06C83.3506 16.06 83.1801 16.0281 83.0876 15.9973C83.0018 15.9687 83.0264 15.9565 83.0665 16.0108L81.4564 17.1972C81.9792 17.9068 82.8727 18.06 83.6294 18.06V16.06ZM83.0737 16.0208C82.9993 15.9171 82.9254 15.7395 82.9254 15.416H80.9254C80.9254 16.0525 81.0755 16.6669 81.4491 17.1872L83.0737 16.0208ZM82.9254 15.416V15.116H80.9254V15.416H82.9254ZM80.9826 14.7826C80.8009 15.2964 80.5659 15.5936 80.3242 15.7663L81.4866 17.3937C82.1409 16.9264 82.5859 16.2476 82.8682 15.4494L80.9826 14.7826ZM80.3172 15.7713C80.0887 15.9375 79.7464 16.06 79.2134 16.06V18.06C80.0564 18.06 80.8421 17.8625 81.4936 17.3887L80.3172 15.7713ZM79.2134 16.06C78.5224 16.06 78.1776 15.9179 78.0185 15.7931L76.7843 17.3669C77.4413 17.8821 78.3044 18.06 79.2134 18.06V16.06ZM78.0261 15.7991C77.9183 15.7129 77.8014 15.5584 77.8014 15.152H75.8014C75.8014 16.0096 76.0845 16.8071 76.7767 17.3609L78.0261 15.7991ZM77.8014 15.152C77.8014 14.876 77.8799 14.7632 77.9696 14.686L76.6652 13.17C76.0669 13.6848 75.8014 14.388 75.8014 15.152H77.8014ZM77.9696 14.686C78.1107 14.5647 78.4303 14.4032 79.0671 14.3041L78.7597 12.3279C77.9566 12.4528 77.2121 12.6993 76.6652 13.17L77.9696 14.686ZM79.4926 12.5008C78.8514 12.0452 78.2057 11.6454 77.5552 11.3031L76.6237 13.0729C77.1892 13.3706 77.7594 13.7228 78.3342 14.1312L79.4926 12.5008ZM77.8743 12.8076C78.2754 12.2996 78.7137 11.9389 79.1852 11.7001L78.2816 9.9159C77.5211 10.3011 76.8634 10.8604 76.3045 11.5684L77.8743 12.8076ZM79.1944 11.6954C79.635 11.4665 80.216 11.328 80.9774 11.328V9.328C79.9788 9.328 79.0639 9.50946 78.2724 9.92059L79.1944 11.6954ZM80.9774 11.328C82.091 11.328 82.7117 11.5741 83.0422 11.8733L84.3846 10.3907C83.5311 9.61795 82.3278 9.328 80.9774 9.328V11.328ZM83.0528 11.8827C83.3641 12.1567 83.6134 12.6493 83.6134 13.58H85.6134C85.6134 12.3027 85.2627 11.1633 84.374 10.3813L83.0528 11.8827ZM83.6134 13.58V15.008H85.6134V13.58H83.6134ZM81.2294 11.44C80.7107 11.44 80.2103 11.5266 79.7498 11.7273L80.549 13.5607C80.7125 13.4894 80.9321 13.44 81.2294 13.44V11.44ZM79.7498 11.7273C79.2986 11.924 78.9054 12.2149 78.5705 12.5822L80.0484 13.9298C80.2094 13.7531 80.3762 13.636 80.549 13.5607L79.7498 11.7273ZM79.4253 14.2493C79.8531 14.1993 80.4114 14.172 81.1094 14.172V12.172C80.3675 12.172 79.7257 12.2007 79.1935 12.2627L79.4253 14.2493ZM81.1094 14.172C81.4258 14.172 81.8763 14.1444 82.2479 13.9215L81.2189 12.2065C81.2653 12.1787 81.3004 12.166 81.3142 12.1614C81.3285 12.1567 81.3308 12.1572 81.3169 12.1596C81.3034 12.162 81.2796 12.1652 81.2437 12.1678C81.208 12.1703 81.1635 12.172 81.1094 12.172V14.172ZM82.2479 13.9215C82.5822 13.7209 82.9134 13.342 82.9134 12.788H80.9134C80.9134 12.6541 80.9526 12.5146 81.0308 12.3947C81.103 12.284 81.1835 12.2277 81.2189 12.2065L82.2479 13.9215ZM82.9134 12.788C82.9134 12.1764 82.4965 11.8217 82.204 11.6656L81.2628 13.4304C81.2376 13.4169 81.1519 13.3673 81.0684 13.256C80.9744 13.1306 80.9134 12.9658 80.9134 12.788H82.9134ZM82.2479 11.6905C81.9099 11.4877 81.5362 11.44 81.2294 11.44V13.44C81.2559 13.44 81.2755 13.4411 81.2891 13.4424C81.3027 13.4437 81.3085 13.4449 81.3079 13.4448C81.3072 13.4447 81.2984 13.4427 81.2833 13.4371C81.2681 13.4314 81.2457 13.4216 81.2189 13.4055L82.2479 11.6905ZM79.9694 16.104C80.5448 16.104 81.0959 15.9954 81.6043 15.7582L80.7585 13.9458C80.5469 14.0446 80.29 14.104 79.9694 14.104V16.104ZM81.6206 15.7504C82.123 15.5048 82.5663 15.1373 82.8249 14.6049L81.0259 13.7311C81.0125 13.7587 80.9598 13.8472 80.7422 13.9536L81.6206 15.7504ZM82.9254 14.168V13.856H80.9254V14.168H82.9254ZM81.4782 12.9616C81.3609 13.0202 81.2213 13.0717 81.0548 13.1119L81.524 15.0561C81.8215 14.9843 82.1059 14.8838 82.3726 14.7504L81.4782 12.9616ZM81.0868 13.1047C80.8798 13.1476 80.6202 13.1924 80.3046 13.2385L80.5942 15.2175C80.9346 15.1676 81.235 15.1164 81.492 15.0633L81.0868 13.1047ZM80.285 13.2416L79.853 13.3136L80.1818 15.2864L80.6138 15.2144L80.285 13.2416ZM79.8247 13.3188C79.547 13.3733 79.2263 13.4663 78.9519 13.6525C78.644 13.8614 78.3454 14.2319 78.3454 14.756H80.3454C80.3454 14.8849 80.3092 15.0148 80.2416 15.1259C80.1786 15.2294 80.1079 15.2851 80.0749 15.3075C80.0429 15.3292 80.0317 15.3298 80.0597 15.3197C80.0861 15.3103 80.1342 15.2962 80.2102 15.2812L79.8247 13.3188ZM78.3454 14.756C78.3454 14.9681 78.3946 15.2014 78.526 15.4213C78.6567 15.6399 78.8361 15.791 79.0143 15.8904C79.3406 16.0723 79.7012 16.104 79.9694 16.104V14.104C79.9403 14.104 79.9183 14.103 79.9026 14.1017C79.8948 14.1011 79.889 14.1005 79.885 14.0999C79.881 14.0994 79.8791 14.0991 79.8792 14.0991C79.8792 14.0991 79.8816 14.0995 79.8861 14.1007C79.8905 14.1018 79.8974 14.1037 79.9065 14.1067C79.9242 14.1127 79.9529 14.1238 79.9885 14.1436C80.0627 14.185 80.1641 14.2636 80.2428 14.3952C80.3222 14.5281 80.3454 14.6599 80.3454 14.756H78.3454ZM88.5999 12.224L87.6199 12.4227L89.5634 12.492L88.5999 12.224ZM91.7799 10.46L92.7699 10.6014L92.9106 9.61659L91.9265 9.4708L91.7799 10.46ZM91.3959 13.148L91.0448 14.0843L92.2099 14.5212L92.3859 13.2894L91.3959 13.148ZM88.9719 13.232L88.1888 12.6101L88.1888 12.6101L88.9719 13.232ZM88.6479 14.312H89.6479L87.6481 14.2968L88.6479 14.312ZM88.6359 15.104L87.6361 15.0888L87.6359 15.0964V15.104H88.6359ZM88.6839 17V18H89.731L89.6829 16.9541L88.6839 17ZM85.8159 17L84.8175 16.9445L84.7588 18H85.8159V17ZM85.8159 10.448L85.8613 9.44903L84.7569 9.39883L84.8174 10.5027L85.8159 10.448ZM88.2399 10.448L89.22 10.2493L89.0497 9.40895L88.1931 9.4491L88.2399 10.448ZM89.5634 12.492C89.6841 12.0578 89.8675 11.8179 90.0646 11.6756C90.2679 11.5287 90.5882 11.412 91.1079 11.412V9.412C90.2917 9.412 89.5259 9.59735 88.8933 10.0544C88.2544 10.5161 87.8517 11.1822 87.6365 11.956L89.5634 12.492ZM91.1079 11.412C91.2939 11.412 91.4688 11.4248 91.6334 11.4492L91.9265 9.4708C91.6591 9.43118 91.386 9.412 91.1079 9.412V11.412ZM90.79 10.3186L90.406 13.0066L92.3859 13.2894L92.7699 10.6014L90.79 10.3186ZM91.7471 12.2117C91.1238 11.978 90.5218 11.824 89.9799 11.824V13.824C90.1741 13.824 90.5161 13.886 91.0448 14.0843L91.7471 12.2117ZM89.9799 11.824C89.3219 11.824 88.6505 12.0288 88.1888 12.6101L89.755 13.8539C89.7551 13.8538 89.7533 13.8558 89.7508 13.8577C89.7485 13.8594 89.7507 13.8572 89.7611 13.8529C89.7835 13.8439 89.8486 13.824 89.9799 13.824V11.824ZM88.1888 12.6101C87.7938 13.1076 87.6479 13.7132 87.6479 14.324H89.6479C89.6479 14.0228 89.7181 13.9004 89.755 13.8539L88.1888 12.6101ZM89.6479 14.324V14.312H87.6479V14.324H89.6479ZM87.6481 14.2968L87.6361 15.0888L89.6358 15.1191L89.6478 14.3271L87.6481 14.2968ZM87.6359 15.104C87.6359 15.6903 87.6524 16.3379 87.685 17.0459L89.6829 16.9541C89.6514 16.2701 89.6359 15.6537 89.6359 15.104H87.6359ZM88.6839 16H85.8159V18H88.6839V16ZM86.8144 17.0555C86.8793 15.8873 86.9119 14.7806 86.9119 13.736H84.9119C84.9119 14.7394 84.8806 15.8087 84.8175 16.9445L86.8144 17.0555ZM86.9119 13.736C86.9119 12.6914 86.8793 11.577 86.8144 10.3933L84.8174 10.5027C84.8806 11.655 84.9119 12.7326 84.9119 13.736H86.9119ZM85.7705 11.447C86.3029 11.4712 86.7249 11.484 87.0279 11.484V9.484C86.771 9.484 86.385 9.47283 85.8613 9.44903L85.7705 11.447ZM87.0279 11.484C87.3468 11.484 87.7686 11.4712 88.2868 11.4469L88.1931 9.4491C87.6872 9.47281 87.3011 9.484 87.0279 9.484V11.484ZM87.2599 10.6467L87.6199 12.4227L89.58 12.0253L89.22 10.2493L87.2599 10.6467ZM101.214 10.436L101.887 11.1751L103.796 9.436H101.214V10.436ZM98.2377 13.148L97.5642 12.4089L96.9118 13.0033L97.4206 13.7245L98.2377 13.148ZM101.082 17V18H103.13L101.87 16.3849L101.082 17ZM97.9017 17L97.0526 17.5281L97.346 18H97.9017V17ZM97.2897 16.016L96.4331 16.532L96.4368 16.5381L96.4406 16.5441L97.2897 16.016ZM96.4977 14.72L97.34 14.1809L96.6992 13.1797L95.8224 13.9825L96.4977 14.72ZM95.5017 15.632L94.8264 14.8945L94.5017 15.1918V15.632H95.5017ZM95.5017 17V18H96.5017V17H95.5017ZM92.7417 17L91.7426 16.9579L91.6987 18H92.7417V17ZM92.7417 7.664V6.664H91.7003L91.7425 7.70457L92.7417 7.664ZM95.5017 7.664H96.5017V6.664H95.5017V7.664ZM95.5017 12.752H94.5017V15.2015L96.216 13.4519L95.5017 12.752ZM97.6977 10.436V9.436H97.2572L96.9599 9.76099L97.6977 10.436ZM100.54 9.69687L97.5642 12.4089L98.9113 13.8871L101.887 11.1751L100.54 9.69687ZM97.4206 13.7245C98.4438 15.1747 99.4015 16.472 100.293 17.6151L101.87 16.3849C101.002 15.272 100.064 14.0013 99.0548 12.5715L97.4206 13.7245ZM101.082 16H97.9017V18H101.082V16ZM98.7509 16.4719L98.1389 15.4879L96.4406 16.5441L97.0526 17.5281L98.7509 16.4719ZM98.1463 15.5C97.7479 14.8387 97.4767 14.3945 97.34 14.1809L95.6554 15.2591C95.7748 15.4455 96.0315 15.8653 96.4331 16.532L98.1463 15.5ZM95.8224 13.9825L94.8264 14.8945L96.177 16.3695L97.173 15.4575L95.8224 13.9825ZM94.5017 15.632V17H96.5017V15.632H94.5017ZM95.5017 16H92.7417V18H95.5017V16ZM93.7408 17.0421C93.8054 15.5077 93.8377 13.9537 93.8377 12.38H91.8377C91.8377 13.9263 91.806 15.4523 91.7426 16.9579L93.7408 17.0421ZM93.8377 12.38C93.8377 10.7984 93.8054 9.21286 93.7409 7.62342L91.7425 7.70457C91.806 9.26714 91.8377 10.8256 91.8377 12.38H93.8377ZM92.7417 8.664H95.5017V6.664H92.7417V8.664ZM94.5017 7.664V12.752H96.5017V7.664H94.5017ZM96.216 13.4519C96.9993 12.6524 97.7392 11.8721 98.4355 11.111L96.9599 9.76099C96.2802 10.5039 95.5561 11.2676 94.7874 12.0521L96.216 13.4519ZM97.6977 11.436H101.214V9.436H97.6977V11.436ZM103.17 14V13H101.972L102.186 14.1789L103.17 14ZM103.638 14.864L102.968 15.6061L102.98 15.6174L102.993 15.6283L103.638 14.864ZM105.666 14.996L106.063 15.9139L106.073 15.9094L106.083 15.9047L105.666 14.996ZM106.374 14.432L106.816 13.5349L106.063 13.1644L105.568 13.8406L106.374 14.432ZM108.51 15.284L109.424 15.6889L109.866 14.6913L108.834 14.3379L108.51 15.284ZM107.154 16.628L107.606 17.5202L107.61 17.518L107.154 16.628ZM101.586 16.184L100.888 16.8999L100.897 16.9086L101.586 16.184ZM101.586 11.264L102.28 11.9843L102.28 11.9843L101.586 11.264ZM106.734 10.736L106.321 11.6468L106.321 11.6468L106.734 10.736ZM108.114 11.876L107.278 12.4244L107.282 12.4307L108.114 11.876ZM108.57 14V15H109.428L109.558 14.1521L108.57 14ZM103.794 12.368L104.304 13.2279L104.304 13.2279L103.794 12.368ZM103.254 12.992L102.323 12.6255L101.785 13.992H103.254V12.992ZM106.086 12.992V13.992H107.529L107.022 12.6409L106.086 12.992ZM105.618 12.38L105.023 13.1836L105.032 13.1908L105.042 13.1978L105.618 12.38ZM107.082 13H103.17V15H107.082V13ZM102.186 14.1789C102.287 14.7317 102.544 15.2234 102.968 15.6061L104.308 14.1219C104.236 14.0566 104.181 13.9723 104.154 13.8211L102.186 14.1789ZM102.993 15.6283C103.488 16.0461 104.108 16.188 104.718 16.188V14.188C104.4 14.188 104.3 14.1139 104.283 14.0997L102.993 15.6283ZM104.718 16.188C105.185 16.188 105.636 16.0983 106.063 15.9139L105.269 14.0781C105.104 14.1497 104.923 14.188 104.718 14.188V16.188ZM106.083 15.9047C106.519 15.7046 106.894 15.4132 107.18 15.0234L105.568 13.8406C105.501 13.9308 105.405 14.0154 105.248 14.0873L106.083 15.9047ZM105.932 15.3291C106.521 15.6194 107.278 15.9191 108.186 16.2301L108.834 14.3379C107.966 14.0409 107.298 13.7726 106.816 13.5349L105.932 15.3291ZM107.596 14.8791C107.458 15.1893 107.193 15.4843 106.698 15.738L107.61 17.518C108.427 17.0997 109.066 16.4987 109.424 15.6889L107.596 14.8791ZM106.702 15.7358C106.242 15.9686 105.566 16.12 104.61 16.12V18.12C105.75 18.12 106.769 17.9434 107.606 17.5202L106.702 15.7358ZM104.61 16.12C103.38 16.12 102.67 15.8354 102.275 15.4594L100.897 16.9086C101.813 17.7806 103.12 18.12 104.61 18.12V16.12ZM102.284 15.4681C101.855 15.0497 101.614 14.4932 101.614 13.7H99.6139C99.6139 14.9548 100.021 16.0543 100.888 16.8999L102.284 15.4681ZM101.614 13.7C101.614 12.9383 101.85 12.3978 102.28 11.9843L100.892 10.5437C100.026 11.3782 99.6139 12.4617 99.6139 13.7H101.614ZM102.28 11.9843C102.664 11.614 103.369 11.328 104.61 11.328V9.328C103.115 9.328 101.804 9.66601 100.892 10.5437L102.28 11.9843ZM104.61 11.328C105.317 11.328 105.878 11.4459 106.321 11.6468L107.147 9.82522C106.39 9.48214 105.535 9.328 104.61 9.328V11.328ZM106.321 11.6468C106.771 11.8509 107.075 12.1146 107.278 12.4244L108.95 11.3276C108.513 10.6614 107.897 10.1651 107.147 9.82522L106.321 11.6468ZM107.282 12.4307C107.483 12.7329 107.594 13.0886 107.594 13.532H109.594C109.594 12.7274 109.384 11.9791 108.946 11.3213L107.282 12.4307ZM107.594 13.532C107.594 13.7281 107.586 13.822 107.582 13.8479L109.558 14.1521C109.586 13.97 109.594 13.7519 109.594 13.532H107.594ZM108.57 13H107.082V15H108.57V13ZM104.778 11.14C104.258 11.14 103.738 11.2381 103.283 11.5081L104.304 13.2279C104.362 13.1939 104.498 13.14 104.778 13.14V11.14ZM103.283 11.5081C102.847 11.7675 102.513 12.1443 102.323 12.6255L104.184 13.3585C104.203 13.3117 104.229 13.2725 104.304 13.2279L103.283 11.5081ZM103.254 13.992H106.086V11.992H103.254V13.992ZM107.022 12.6409C106.858 12.2036 106.58 11.8342 106.193 11.5622L105.042 13.1978C105.088 13.2298 105.122 13.2684 105.15 13.3431L107.022 12.6409ZM106.213 11.5764C105.782 11.2571 105.276 11.14 104.778 11.14V13.14C104.968 13.14 105.022 13.1829 105.023 13.1836L106.213 11.5764ZM114.865 12.596L114.8 13.5939L115.865 13.6633V12.596H114.865ZM112.849 12.488L112.889 11.4888L111.859 11.4481L111.849 12.4786L112.849 12.488ZM112.837 13.76L111.837 13.7506V13.76H112.837ZM113.113 14.78L112.31 15.3758L112.321 15.3905L112.332 15.4047L113.113 14.78ZM114.649 15.092L115.643 15.1995L115.789 13.857L114.462 14.1097L114.649 15.092ZM114.625 16.976L114.804 17.9599L115.652 17.8058L115.625 16.9448L114.625 16.976ZM110.809 16.448L110.044 17.0921L110.05 17.0994L110.057 17.1065L110.809 16.448ZM110.233 14.552L109.233 14.5461V14.552H110.233ZM110.245 12.524L111.245 12.5299L111.251 11.4803L110.203 11.5249L110.245 12.524ZM109.069 12.596H108.069V13.6775L109.147 13.5929L109.069 12.596ZM109.069 10.472V9.472H108.069V10.472H109.069ZM110.125 10.076L110.801 10.8132L110.801 10.8132L110.125 10.076ZM110.641 9.128V8.128H109.782L109.653 8.97756L110.641 9.128ZM113.905 9.128L114.713 9.71686L115.871 8.128H113.905V9.128ZM112.549 10.472L111.988 9.64408L109.29 11.472H112.549V10.472ZM114.865 10.472H115.865V9.472H114.865V10.472ZM114.93 11.5981C114.187 11.5497 113.507 11.5132 112.889 11.4888L112.81 13.4872C113.408 13.5108 114.071 13.5463 114.8 13.5939L114.93 11.5981ZM111.849 12.4786L111.837 13.7506L113.837 13.7694L113.849 12.4974L111.849 12.4786ZM111.837 13.76C111.837 14.3231 111.956 14.8988 112.31 15.3758L113.916 14.1842C113.902 14.1652 113.837 14.0609 113.837 13.76H111.837ZM112.332 15.4047C112.8 15.9897 113.509 16.14 114.121 16.14V14.14C113.959 14.14 113.876 14.119 113.846 14.1083C113.824 14.1004 113.857 14.1084 113.894 14.1553L112.332 15.4047ZM114.121 16.14C114.363 16.14 114.602 16.1189 114.836 16.0743L114.462 14.1097C114.36 14.1291 114.247 14.14 114.121 14.14V16.14ZM113.655 14.9845C113.619 15.317 113.601 15.6528 113.601 15.992H115.601C115.601 15.7232 115.615 15.459 115.643 15.1995L113.655 14.9845ZM113.601 15.992C113.601 16.1548 113.61 16.4998 113.626 17.0072L115.625 16.9448C115.609 16.4282 115.601 16.1172 115.601 15.992H113.601ZM114.446 15.9921C114.115 16.0523 113.86 16.0856 113.671 16.0982L113.804 18.0938C114.095 18.0744 114.431 18.0277 114.804 17.9599L114.446 15.9921ZM113.671 16.0982C113.462 16.1121 113.174 16.12 112.801 16.12V18.12C113.196 18.12 113.533 18.1119 113.804 18.0938L113.671 16.0982ZM112.801 16.12C111.99 16.12 111.678 15.9221 111.562 15.7895L110.057 17.1065C110.725 17.8699 111.74 18.12 112.801 18.12V16.12ZM111.574 15.8039C111.388 15.5834 111.233 15.2082 111.233 14.552H109.233C109.233 15.5118 109.462 16.4006 110.044 17.0921L111.574 15.8039ZM111.233 14.5579L111.245 12.5299L109.245 12.5181L109.233 14.5461L111.233 14.5579ZM110.203 11.5249C109.814 11.5415 109.41 11.5662 108.991 11.5991L109.147 13.5929C109.545 13.5618 109.925 13.5385 110.288 13.5231L110.203 11.5249ZM110.069 12.596V10.472H108.069V12.596H110.069ZM109.069 11.472C109.718 11.472 110.316 11.2578 110.801 10.8132L109.449 9.33885C109.359 9.42217 109.253 9.472 109.069 9.472V11.472ZM110.801 10.8132C111.248 10.4032 111.538 9.88375 111.63 9.27844L109.653 8.97756C109.633 9.10825 109.578 9.22076 109.449 9.33885L110.801 10.8132ZM110.641 10.128H113.905V8.128H110.641V10.128ZM113.097 8.53914C112.747 9.02013 112.375 9.38215 111.988 9.64408L113.11 11.2999C113.715 10.8898 114.248 10.3559 114.713 9.71686L113.097 8.53914ZM112.549 11.472H114.865V9.472H112.549V11.472ZM113.865 10.472V12.596H115.865V10.472H113.865Z" fill="black" mask="url(#path-2-outside-1_1_9)"/>
</g>
<defs>
<filter id="filter0_d_1_9" x="25.3784" y="7.664" width="93.4868" height="17.456" filterUnits="userSpaceOnUse" color-interpolation-filters="sRGB">
<feFlood flood-opacity="0" result="BackgroundImageFix"/>
<feColorMatrix in="SourceAlpha" type="matrix" values="0 0 0 0 0 0 0 0 0 0 0 0 0 0 0 0 0 0 127 0" result="hardAlpha"/>
<feOffset dy="4"/>
<feGaussianBlur stdDeviation="2"/>
<feComposite in2="hardAlpha" operator="out"/>
<feColorMatrix type="matrix" values="0 0 0 0 0 0 0 0 0 0 0 0 0 0 0 0 0 0 0.25 0"/>
<feBlend mode="normal" in2="BackgroundImageFix" result="effect1_dropShadow_1_9"/>
<feBlend mode="normal" in="SourceGraphic" in2="effect1_dropShadow_1_9" result="shape"/>
</filter>
</defs>
</svg>
